<mxfile host="app.diagrams.net" agent="Mozilla/5.0 (X11; Linux x86_64) AppleWebKit/537.36 (KHTML, like Gecko) Chrome/133.0.0.0 Safari/537.36" version="26.0.16">
  <diagram name="Page-1" id="pwwdq_0nMCk1IciR-zo5">
    <mxGraphModel grid="0" page="0" gridSize="10" guides="1" tooltips="1" connect="1" arrows="1" fold="1" pageScale="1" pageWidth="827" pageHeight="1169" math="0" shadow="0">
      <root>
        <mxCell id="0" />
        <mxCell id="1" parent="0" />
        <mxCell id="TSNZ0B2GeKspU6hrT74b-27" value="" style="group" connectable="0" vertex="1" parent="1">
          <mxGeometry x="336" y="-430" width="1187" height="1100" as="geometry" />
        </mxCell>
        <mxCell id="TSNZ0B2GeKspU6hrT74b-28" value="" style="rounded=1;whiteSpace=wrap;html=1;" vertex="1" parent="TSNZ0B2GeKspU6hrT74b-27">
          <mxGeometry width="1187" height="1100" as="geometry" />
        </mxCell>
        <mxCell id="TSNZ0B2GeKspU6hrT74b-29" value="&lt;b&gt;&lt;font style=&quot;font-size: 18px;&quot;&gt;Beep&lt;/font&gt;&lt;/b&gt;&lt;div&gt;&lt;b&gt;&lt;font style=&quot;font-size: 18px;&quot;&gt;Targeted micro-services architecture&amp;nbsp;&lt;/font&gt;&lt;/b&gt;&lt;/div&gt;" style="text;html=1;align=center;verticalAlign=middle;whiteSpace=wrap;rounded=0;" vertex="1" parent="TSNZ0B2GeKspU6hrT74b-27">
          <mxGeometry x="261.2235915492958" y="29.72972972972973" width="664.5528169014085" height="74.32432432432431" as="geometry" />
        </mxCell>
        <mxCell id="TSNZ0B2GeKspU6hrT74b-11" value="" style="rounded=1;whiteSpace=wrap;html=1;" vertex="1" parent="1">
          <mxGeometry x="662" y="-320" width="632" height="943" as="geometry" />
        </mxCell>
        <mxCell id="ObivibnyZp41QjcmPRQ--3" value="API Gateway" style="swimlane;whiteSpace=wrap;html=1;" vertex="1" parent="1">
          <mxGeometry x="684" y="134" width="165" height="112" as="geometry" />
        </mxCell>
        <mxCell id="ObivibnyZp41QjcmPRQ--4" value="&lt;div&gt;Routes requests&lt;/div&gt;&lt;div&gt;Authenticates Users&lt;/div&gt;&lt;div&gt;&lt;span style=&quot;background-color: transparent; color: light-dark(rgb(0, 0, 0), rgb(255, 255, 255));&quot;&gt;Rate Limiting&amp;nbsp;&lt;/span&gt;&lt;/div&gt;" style="text;html=1;align=center;verticalAlign=middle;resizable=0;points=[];autosize=1;strokeColor=none;fillColor=none;fontSize=16;" vertex="1" parent="ObivibnyZp41QjcmPRQ--3">
          <mxGeometry x="4" y="31" width="161" height="70" as="geometry" />
        </mxCell>
        <mxCell id="ObivibnyZp41QjcmPRQ--5" value="Server Management" style="swimlane;whiteSpace=wrap;html=1;" vertex="1" parent="1">
          <mxGeometry x="1052" y="-95" width="144" height="96" as="geometry" />
        </mxCell>
        <mxCell id="ObivibnyZp41QjcmPRQ--6" value="&lt;div&gt;API REST&lt;/div&gt;" style="text;html=1;align=left;verticalAlign=middle;resizable=0;points=[];autosize=1;strokeColor=none;fillColor=none;fontSize=16;" vertex="1" parent="ObivibnyZp41QjcmPRQ--5">
          <mxGeometry x="32" y="41" width="91" height="31" as="geometry" />
        </mxCell>
        <mxCell id="hMXItjmgLlIieqRShrU6-1" value="Channel Management" style="swimlane;whiteSpace=wrap;html=1;" vertex="1" parent="1">
          <mxGeometry x="1052" y="24" width="144" height="96" as="geometry" />
        </mxCell>
        <mxCell id="hMXItjmgLlIieqRShrU6-2" value="&lt;div&gt;API REST&lt;/div&gt;" style="text;html=1;align=left;verticalAlign=middle;resizable=0;points=[];autosize=1;strokeColor=none;fillColor=none;fontSize=16;" vertex="1" parent="hMXItjmgLlIieqRShrU6-1">
          <mxGeometry x="32" y="41" width="91" height="31" as="geometry" />
        </mxCell>
        <mxCell id="hMXItjmgLlIieqRShrU6-3" value="Messaging" style="swimlane;whiteSpace=wrap;html=1;" vertex="1" parent="1">
          <mxGeometry x="1052" y="143" width="144" height="96" as="geometry" />
        </mxCell>
        <mxCell id="hMXItjmgLlIieqRShrU6-4" value="&lt;div&gt;API REST&lt;/div&gt;" style="text;html=1;align=left;verticalAlign=middle;resizable=0;points=[];autosize=1;strokeColor=none;fillColor=none;fontSize=16;" vertex="1" parent="hMXItjmgLlIieqRShrU6-3">
          <mxGeometry x="32" y="41" width="91" height="31" as="geometry" />
        </mxCell>
        <mxCell id="hMXItjmgLlIieqRShrU6-5" value="Friends" style="swimlane;whiteSpace=wrap;html=1;" vertex="1" parent="1">
          <mxGeometry x="1052" y="255" width="144" height="96" as="geometry" />
        </mxCell>
        <mxCell id="hMXItjmgLlIieqRShrU6-6" value="API REST" style="text;html=1;align=left;verticalAlign=middle;resizable=0;points=[];autosize=1;strokeColor=none;fillColor=none;fontSize=16;" vertex="1" parent="hMXItjmgLlIieqRShrU6-5">
          <mxGeometry x="32" y="41" width="91" height="31" as="geometry" />
        </mxCell>
        <mxCell id="hMXItjmgLlIieqRShrU6-7" value="Permission" style="swimlane;whiteSpace=wrap;html=1;" vertex="1" parent="1">
          <mxGeometry x="1052" y="380" width="144" height="96" as="geometry" />
        </mxCell>
        <mxCell id="hMXItjmgLlIieqRShrU6-8" value="&lt;div&gt;API REST&lt;/div&gt;" style="text;html=1;align=left;verticalAlign=middle;resizable=0;points=[];autosize=1;strokeColor=none;fillColor=none;fontSize=16;" vertex="1" parent="hMXItjmgLlIieqRShrU6-7">
          <mxGeometry x="32" y="41" width="91" height="31" as="geometry" />
        </mxCell>
        <mxCell id="hMXItjmgLlIieqRShrU6-9" value="Notification" style="swimlane;whiteSpace=wrap;html=1;" vertex="1" parent="1">
          <mxGeometry x="1052" y="499" width="144" height="96" as="geometry" />
        </mxCell>
        <mxCell id="hMXItjmgLlIieqRShrU6-10" value="&lt;div&gt;API REST&lt;/div&gt;" style="text;html=1;align=left;verticalAlign=middle;resizable=0;points=[];autosize=1;strokeColor=none;fillColor=none;fontSize=16;" vertex="1" parent="hMXItjmgLlIieqRShrU6-9">
          <mxGeometry x="32" y="41" width="91" height="31" as="geometry" />
        </mxCell>
        <mxCell id="hMXItjmgLlIieqRShrU6-11" value="Server DB" style="shape=cylinder3;whiteSpace=wrap;html=1;boundedLbl=1;backgroundOutline=1;size=15;" vertex="1" parent="1">
          <mxGeometry x="1382" y="-87" width="60" height="80" as="geometry" />
        </mxCell>
        <mxCell id="hMXItjmgLlIieqRShrU6-12" value="Channel DB" style="shape=cylinder3;whiteSpace=wrap;html=1;boundedLbl=1;backgroundOutline=1;size=15;" vertex="1" parent="1">
          <mxGeometry x="1382" y="32" width="60" height="80" as="geometry" />
        </mxCell>
        <mxCell id="hMXItjmgLlIieqRShrU6-13" value="Notification DB" style="shape=cylinder3;whiteSpace=wrap;html=1;boundedLbl=1;backgroundOutline=1;size=15;" vertex="1" parent="1">
          <mxGeometry x="1382" y="511" width="60" height="80" as="geometry" />
        </mxCell>
        <mxCell id="hMXItjmgLlIieqRShrU6-14" value="Permission DB" style="shape=cylinder3;whiteSpace=wrap;html=1;boundedLbl=1;backgroundOutline=1;size=15;" vertex="1" parent="1">
          <mxGeometry x="1382" y="388" width="60" height="80" as="geometry" />
        </mxCell>
        <mxCell id="hMXItjmgLlIieqRShrU6-15" value="Friend DB" style="shape=cylinder3;whiteSpace=wrap;html=1;boundedLbl=1;backgroundOutline=1;size=15;" vertex="1" parent="1">
          <mxGeometry x="1380.75" y="261.63" width="60" height="80" as="geometry" />
        </mxCell>
        <mxCell id="hMXItjmgLlIieqRShrU6-16" value="Message DB" style="shape=cylinder3;whiteSpace=wrap;html=1;boundedLbl=1;backgroundOutline=1;size=15;" vertex="1" parent="1">
          <mxGeometry x="1382" y="151" width="60" height="80" as="geometry" />
        </mxCell>
        <mxCell id="hMXItjmgLlIieqRShrU6-17" value="" style="endArrow=classic;html=1;rounded=0;fontSize=12;startSize=8;endSize=8;curved=1;exitX=1.001;exitY=0.134;exitDx=0;exitDy=0;exitPerimeter=0;" edge="1" parent="1" source="ObivibnyZp41QjcmPRQ--3">
          <mxGeometry width="50" height="50" relative="1" as="geometry">
            <mxPoint x="955" y="252" as="sourcePoint" />
            <mxPoint x="1051" y="-21" as="targetPoint" />
          </mxGeometry>
        </mxCell>
        <mxCell id="hMXItjmgLlIieqRShrU6-18" value="" style="endArrow=classic;html=1;rounded=0;fontSize=12;startSize=8;endSize=8;curved=1;exitX=1;exitY=0.25;exitDx=0;exitDy=0;entryX=0;entryY=0.5;entryDx=0;entryDy=0;" edge="1" parent="1" source="ObivibnyZp41QjcmPRQ--3" target="hMXItjmgLlIieqRShrU6-1">
          <mxGeometry width="50" height="50" relative="1" as="geometry">
            <mxPoint x="848" y="219" as="sourcePoint" />
            <mxPoint x="1061" y="-11" as="targetPoint" />
          </mxGeometry>
        </mxCell>
        <mxCell id="hMXItjmgLlIieqRShrU6-19" value="" style="endArrow=classic;html=1;rounded=0;fontSize=12;startSize=8;endSize=8;curved=1;exitX=1.008;exitY=0.286;exitDx=0;exitDy=0;entryX=0;entryY=0.5;entryDx=0;entryDy=0;exitPerimeter=0;" edge="1" parent="1" source="ObivibnyZp41QjcmPRQ--4" target="hMXItjmgLlIieqRShrU6-3">
          <mxGeometry width="50" height="50" relative="1" as="geometry">
            <mxPoint x="848" y="247" as="sourcePoint" />
            <mxPoint x="1064" y="89" as="targetPoint" />
          </mxGeometry>
        </mxCell>
        <mxCell id="hMXItjmgLlIieqRShrU6-21" style="edgeStyle=none;curved=1;rounded=0;orthogonalLoop=1;jettySize=auto;html=1;entryX=0;entryY=0.5;entryDx=0;entryDy=0;fontSize=12;startSize=8;endSize=8;exitX=1.006;exitY=0.858;exitDx=0;exitDy=0;exitPerimeter=0;" edge="1" parent="1" source="ObivibnyZp41QjcmPRQ--4" target="hMXItjmgLlIieqRShrU6-7">
          <mxGeometry relative="1" as="geometry" />
        </mxCell>
        <mxCell id="hMXItjmgLlIieqRShrU6-22" style="edgeStyle=none;curved=1;rounded=0;orthogonalLoop=1;jettySize=auto;html=1;entryX=0;entryY=0.5;entryDx=0;entryDy=0;fontSize=12;startSize=8;endSize=8;exitX=1;exitY=1;exitDx=0;exitDy=0;" edge="1" parent="1" source="ObivibnyZp41QjcmPRQ--3" target="hMXItjmgLlIieqRShrU6-9">
          <mxGeometry relative="1" as="geometry" />
        </mxCell>
        <mxCell id="hMXItjmgLlIieqRShrU6-23" style="edgeStyle=none;curved=1;rounded=0;orthogonalLoop=1;jettySize=auto;html=1;entryX=0;entryY=0.5;entryDx=0;entryDy=0;entryPerimeter=0;fontSize=12;startSize=8;endSize=8;" edge="1" parent="1" source="ObivibnyZp41QjcmPRQ--5" target="hMXItjmgLlIieqRShrU6-11">
          <mxGeometry relative="1" as="geometry" />
        </mxCell>
        <mxCell id="hMXItjmgLlIieqRShrU6-24" style="edgeStyle=none;curved=1;rounded=0;orthogonalLoop=1;jettySize=auto;html=1;entryX=0;entryY=0.5;entryDx=0;entryDy=0;entryPerimeter=0;fontSize=12;startSize=8;endSize=8;" edge="1" parent="1" source="hMXItjmgLlIieqRShrU6-1" target="hMXItjmgLlIieqRShrU6-12">
          <mxGeometry relative="1" as="geometry" />
        </mxCell>
        <mxCell id="hMXItjmgLlIieqRShrU6-25" style="edgeStyle=none;curved=1;rounded=0;orthogonalLoop=1;jettySize=auto;html=1;entryX=0;entryY=0.5;entryDx=0;entryDy=0;entryPerimeter=0;fontSize=12;startSize=8;endSize=8;" edge="1" parent="1" source="hMXItjmgLlIieqRShrU6-3" target="hMXItjmgLlIieqRShrU6-16">
          <mxGeometry relative="1" as="geometry" />
        </mxCell>
        <mxCell id="hMXItjmgLlIieqRShrU6-26" style="edgeStyle=none;curved=1;rounded=0;orthogonalLoop=1;jettySize=auto;html=1;entryX=0;entryY=0.5;entryDx=0;entryDy=0;entryPerimeter=0;fontSize=12;startSize=8;endSize=8;" edge="1" parent="1" source="hMXItjmgLlIieqRShrU6-5" target="hMXItjmgLlIieqRShrU6-15">
          <mxGeometry relative="1" as="geometry" />
        </mxCell>
        <mxCell id="hMXItjmgLlIieqRShrU6-27" style="edgeStyle=none;curved=1;rounded=0;orthogonalLoop=1;jettySize=auto;html=1;entryX=0;entryY=0.5;entryDx=0;entryDy=0;entryPerimeter=0;fontSize=12;startSize=8;endSize=8;" edge="1" parent="1" source="hMXItjmgLlIieqRShrU6-7" target="hMXItjmgLlIieqRShrU6-14">
          <mxGeometry relative="1" as="geometry" />
        </mxCell>
        <mxCell id="hMXItjmgLlIieqRShrU6-28" style="edgeStyle=none;curved=1;rounded=0;orthogonalLoop=1;jettySize=auto;html=1;entryX=0;entryY=0.5;entryDx=0;entryDy=0;entryPerimeter=0;fontSize=12;startSize=8;endSize=8;" edge="1" parent="1" source="hMXItjmgLlIieqRShrU6-9" target="hMXItjmgLlIieqRShrU6-13">
          <mxGeometry relative="1" as="geometry" />
        </mxCell>
        <mxCell id="hMXItjmgLlIieqRShrU6-29" value="" style="shape=stencil(fZbdcgIhDIWfZm8zQAg/17Z9j85U606tdqz9e/tmZ0c0uJ47xP0I5JwEBl59bp8/1kNwn6fj4W39M76ctgM/DCGM++36OJ50NPDjwKvN4bh+PR6+9i/z74/n6ctp9H74nlb4nbmSKZeJCu5vngmZ6jzzNAO7cX8FVKEsBuBKrgKg9oAE8gkCbLeUhEoEQKSUDZDLeWYRKIl8MEDRmHwfyBrBG6Amyu4+kDxxMoB3jhwgYu7TVAsVkFcWCs4CTBEoF4RctKeOxHIf8IXYpikHikAIf+MNUW94AGSSaoAoFIE3AlOyeWU+p2E5S9yfQZcQILVuQOwZdJNoS9Ls3wA5u2XZTIHECqeJ9kDpSaauRiNVcAY1QhdBzeLBli5WazpkSsBLV25uRaqWRyFawTQzRRIQYirJzq5atkBqLfouwqUxLBepthWb10vrWZY6UOAeyKCCtDV625mm9gmUC4Wc3VLJMMIE1BsA2FW9JraVlQB7n3c9oMKhCLEvIM1zBPZ25/umNQ1tVEC2G+fFCC8g398O2hNQuQlVu752DBfA+q0ptnqO5JFmeuIuo9DY7KjY71UxdJV4EntifPWorW++R/dC4t7V3DlIB5cHx2bc7eb3yvX//QNFp+bHDT/+Aw==);lineShape=1;strokeColor=default;" vertex="1" parent="1">
          <mxGeometry x="1990.6361531833104" y="286.54791662716093" width="4.4500378782049665" height="4.443082110816855" as="geometry" />
        </mxCell>
        <mxCell id="TSNZ0B2GeKspU6hrT74b-5" value="User Profile Management" style="swimlane;whiteSpace=wrap;html=1;startSize=35;" vertex="1" parent="1">
          <mxGeometry x="1052" y="-214" width="144" height="96" as="geometry" />
        </mxCell>
        <mxCell id="TSNZ0B2GeKspU6hrT74b-6" value="&lt;div&gt;API REST&lt;/div&gt;" style="text;html=1;align=left;verticalAlign=middle;resizable=0;points=[];autosize=1;strokeColor=none;fillColor=none;fontSize=16;" vertex="1" parent="TSNZ0B2GeKspU6hrT74b-5">
          <mxGeometry x="32" y="41" width="91" height="31" as="geometry" />
        </mxCell>
        <mxCell id="TSNZ0B2GeKspU6hrT74b-7" value="User Profile DB" style="shape=cylinder3;whiteSpace=wrap;html=1;boundedLbl=1;backgroundOutline=1;size=15;" vertex="1" parent="1">
          <mxGeometry x="1382" y="-206" width="60" height="80" as="geometry" />
        </mxCell>
        <mxCell id="TSNZ0B2GeKspU6hrT74b-8" style="edgeStyle=none;curved=1;rounded=0;orthogonalLoop=1;jettySize=auto;html=1;entryX=0;entryY=0.5;entryDx=0;entryDy=0;entryPerimeter=0;fontSize=12;startSize=8;endSize=8;" edge="1" parent="1" source="TSNZ0B2GeKspU6hrT74b-5" target="TSNZ0B2GeKspU6hrT74b-7">
          <mxGeometry relative="1" as="geometry" />
        </mxCell>
        <mxCell id="TSNZ0B2GeKspU6hrT74b-9" value="" style="endArrow=classic;html=1;rounded=0;fontSize=12;startSize=8;endSize=8;curved=1;exitX=1;exitY=0;exitDx=0;exitDy=0;entryX=0;entryY=0.5;entryDx=0;entryDy=0;" edge="1" parent="1" source="ObivibnyZp41QjcmPRQ--3" target="TSNZ0B2GeKspU6hrT74b-5">
          <mxGeometry width="50" height="50" relative="1" as="geometry">
            <mxPoint x="825" y="209" as="sourcePoint" />
            <mxPoint x="1038" y="-21" as="targetPoint" />
          </mxGeometry>
        </mxCell>
        <mxCell id="TSNZ0B2GeKspU6hrT74b-22" style="edgeStyle=orthogonalEdgeStyle;rounded=0;orthogonalLoop=1;jettySize=auto;html=1;entryX=0;entryY=0.5;entryDx=0;entryDy=0;" edge="1" parent="1" source="TSNZ0B2GeKspU6hrT74b-12" target="TSNZ0B2GeKspU6hrT74b-14">
          <mxGeometry relative="1" as="geometry" />
        </mxCell>
        <mxCell id="TSNZ0B2GeKspU6hrT74b-12" value="" style="points=[];aspect=fixed;html=1;align=center;shadow=0;dashed=0;fillColor=#FF6A00;strokeColor=none;shape=mxgraph.alibaba_cloud.user;" vertex="1" parent="1">
          <mxGeometry x="112" y="161" width="60" height="60" as="geometry" />
        </mxCell>
        <mxCell id="TSNZ0B2GeKspU6hrT74b-17" style="rounded=0;orthogonalLoop=1;jettySize=auto;html=1;entryX=0;entryY=0.5;entryDx=0;entryDy=0;" edge="1" parent="1" source="TSNZ0B2GeKspU6hrT74b-14" target="ObivibnyZp41QjcmPRQ--3">
          <mxGeometry relative="1" as="geometry" />
        </mxCell>
        <mxCell id="TSNZ0B2GeKspU6hrT74b-14" value="Frontend" style="swimlane;whiteSpace=wrap;html=1;" vertex="1" parent="1">
          <mxGeometry x="364" y="135" width="165" height="112" as="geometry" />
        </mxCell>
        <mxCell id="TSNZ0B2GeKspU6hrT74b-16" value="&lt;div&gt;Web App&lt;/div&gt;" style="text;html=1;align=center;verticalAlign=middle;resizable=0;points=[];autosize=1;strokeColor=none;fillColor=none;fontSize=16;" vertex="1" parent="TSNZ0B2GeKspU6hrT74b-14">
          <mxGeometry x="41.5" y="49.5" width="83" height="31" as="geometry" />
        </mxCell>
        <mxCell id="hMXItjmgLlIieqRShrU6-20" style="edgeStyle=none;curved=1;rounded=0;orthogonalLoop=1;jettySize=auto;html=1;fontSize=12;startSize=8;endSize=8;entryX=0;entryY=0.5;entryDx=0;entryDy=0;exitX=0.999;exitY=0.553;exitDx=0;exitDy=0;exitPerimeter=0;" edge="1" parent="1" source="ObivibnyZp41QjcmPRQ--4" target="hMXItjmgLlIieqRShrU6-5">
          <mxGeometry relative="1" as="geometry">
            <mxPoint x="1058.904761904762" y="239.28571428571422" as="targetPoint" />
          </mxGeometry>
        </mxCell>
        <mxCell id="TSNZ0B2GeKspU6hrT74b-23" value="USER" style="text;html=1;align=center;verticalAlign=middle;resizable=0;points=[];autosize=1;strokeColor=none;fillColor=none;" vertex="1" parent="1">
          <mxGeometry x="115" y="215" width="51" height="26" as="geometry" />
        </mxCell>
        <mxCell id="TSNZ0B2GeKspU6hrT74b-26" value="&lt;font style=&quot;font-size: 17px;&quot;&gt;&lt;b&gt;HTTP&lt;/b&gt;&lt;/font&gt;" style="text;html=1;align=center;verticalAlign=middle;resizable=0;points=[];autosize=1;strokeColor=none;fillColor=none;" vertex="1" parent="1">
          <mxGeometry x="947.5" y="-309" width="62" height="32" as="geometry" />
        </mxCell>
      </root>
    </mxGraphModel>
  </diagram>
</mxfile>
